HIERARCHY
ROOT hip
{
  OFFSET 0 0 0
  CHANNELS 6 Xposition Yposition Zposition Zrotation Yrotation Xrotation
  JOINT abdomen
  {
    OFFSET 0 20.6881 -0.73152
    CHANNELS 3 Zrotation Xrotation Yrotation
    JOINT chest
    {
      OFFSET 0 11.7043 -0.48768
      CHANNELS 3 Zrotation Xrotation Yrotation
      JOINT neck
      {
        OFFSET 0 22.1894 -2.19456
        CHANNELS 3 Zrotation Xrotation Yrotation
        JOINT head
        {
          OFFSET -0.24384 7.07133 1.2192
          CHANNELS 3 Zrotation Xrotation Yrotation
          JOINT leftEye
          {
            OFFSET 4.14528 8.04674 8.04672
            CHANNELS 3 Zrotation Xrotation Yrotation
            End Site
            {
              OFFSET 1 0 0
            }
          }
          JOINT rightEye
          {
            OFFSET -3.6576 8.04674 8.04672
            CHANNELS 3 Zrotation Xrotation Yrotation
            End Site
            {
              OFFSET 1 0 0
            }
          }
        }
      }
      JOINT rCollar
      {
        OFFSET -2.68224 19.2634 -4.8768
        CHANNELS 3 Zrotation Xrotation Yrotation
        JOINT rShldr
        {
          OFFSET -8.77824 -1.95073 1.46304
          CHANNELS 3 Zrotation Xrotation Yrotation
          JOINT rForeArm
          {
            OFFSET -28.1742 -1.7115 0.48768
            CHANNELS 3 Zrotation Xrotation Yrotation
            JOINT rHand
            {
              OFFSET -22.5879 0.773209 7.07136
              CHANNELS 3 Zrotation Xrotation Yrotation
              JOINT rThumb1
              {
                OFFSET -1.2192 -0.487915 3.41376
                CHANNELS 3 Zrotation Xrotation Yrotation
                JOINT rThumb2
                {
                  OFFSET -3.37035 -0.52449 3.41376
                  CHANNELS 3 Zrotation Xrotation Yrotation
                  End Site
                  {
                    OFFSET -1.78271 -1.18214 1.43049
                  }
                }
              }
              JOINT rIndex1
              {
                OFFSET -7.75947 0.938293 5.60832
                CHANNELS 3 Zrotation Xrotation Yrotation
                JOINT rIndex2
                {
                  OFFSET -2.54057 -0.884171 1.56538
                  CHANNELS 3 Zrotation Xrotation Yrotation
                  End Site
                  {
                    OFFSET -1.62519 -0.234802 1.16502
                  }
                }
              }
              JOINT rMid1
              {
                OFFSET -8.24714 1.18213 3.41376
                CHANNELS 3 Zrotation Xrotation Yrotation
                JOINT rMid2
                {
                  OFFSET -3.10165 -0.590103 1.0647
                  CHANNELS 3 Zrotation Xrotation Yrotation
                  End Site
                  {
                    OFFSET -2.48547 -0.328903 0.83742
                  }
                }
              }
              JOINT rRing1
              {
                OFFSET -8.82822 0.546677 1.51678
                CHANNELS 3 Zrotation Xrotation Yrotation
                JOINT rRing2
                {
                  OFFSET -2.60934 -0.819778 -0.0198488
                  CHANNELS 3 Zrotation Xrotation Yrotation
                  End Site
                  {
                    OFFSET -2.33842 -0.294052 0.168128
                  }
                }
              }
              JOINT rPinky1
              {
                OFFSET -8.27202 -0.0477905 -0.4584
                CHANNELS 3 Zrotation Xrotation Yrotation
                JOINT rPinky2
                {
                  OFFSET -1.82734 -0.647385 -0.700984
                  CHANNELS 3 Zrotation Xrotation Yrotation
                  End Site
                  {
                    OFFSET -1.69225 -0.51767 -0.607171
                  }
                }
              }
            }
          }
        }
      }
      JOINT lCollar
      {
        OFFSET 2.68224 19.2634 -4.8768
        CHANNELS 3 Zrotation Xrotation Yrotation
        JOINT lShldr
        {
          OFFSET 8.77824 -1.95073 1.46304
          CHANNELS 3 Zrotation Xrotation Yrotation
          JOINT lForeArm
          {
            OFFSET 28.1742 -1.7115 0.48768
            CHANNELS 3 Zrotation Xrotation Yrotation
            JOINT lHand
            {
              OFFSET 22.5879 0.773209 7.07136
              CHANNELS 3 Zrotation Xrotation Yrotation
              JOINT lThumb1
              {
                OFFSET 1.2192 -0.487915 3.41376
                CHANNELS 3 Zrotation Xrotation Yrotation
                JOINT lThumb2
                {
                  OFFSET 3.37035 -0.52449 3.41376
                  CHANNELS 3 Zrotation Xrotation Yrotation
                  End Site
                  {
                    OFFSET 1.78271 -1.18214 1.43049
                  }
                }
              }
              JOINT lIndex1
              {
                OFFSET 7.75947 0.938293 5.60832
                CHANNELS 3 Zrotation Xrotation Yrotation
                JOINT lIndex2
                {
                  OFFSET 2.54057 -0.884171 1.56538
                  CHANNELS 3 Zrotation Xrotation Yrotation
                  End Site
                  {
                    OFFSET 1.62519 -0.234802 1.16502
                  }
                }
              }
              JOINT lMid1
              {
                OFFSET 8.24714 1.18213 3.41376
                CHANNELS 3 Zrotation Xrotation Yrotation
                JOINT lMid2
                {
                  OFFSET 3.10165 -0.590103 1.0647
                  CHANNELS 3 Zrotation Xrotation Yrotation
                  End Site
                  {
                    OFFSET 2.48547 -0.328903 0.83742
                  }
                }
              }
              JOINT lRing1
              {
                OFFSET 8.82822 0.546677 1.51678
                CHANNELS 3 Zrotation Xrotation Yrotation
                JOINT lRing2
                {
                  OFFSET 2.60934 -0.819778 -0.0198488
                  CHANNELS 3 Zrotation Xrotation Yrotation
                  End Site
                  {
                    OFFSET 2.33842 -0.294052 0.168128
                  }
                }
              }
              JOINT lPinky1
              {
                OFFSET 8.27202 -0.0477905 -0.4584
                CHANNELS 3 Zrotation Xrotation Yrotation
                JOINT lPinky2
                {
                  OFFSET 1.82734 -0.647385 -0.700984
                  CHANNELS 3 Zrotation Xrotation Yrotation
                  End Site
                  {
                    OFFSET 1.69225 -0.51767 -0.607171
                  }
                }
              }
            }
          }
        }
      }
    }
  }
  JOINT rButtock
  {
    OFFSET -8.77824 4.35084 1.2192
    CHANNELS 3 Zrotation Xrotation Yrotation
    JOINT rThigh
    {
      OFFSET 0 -1.70687 -2.19456
      CHANNELS 3 Zrotation Xrotation Yrotation
      JOINT rShin
      {
        OFFSET 0 -36.8199 0.73152
        CHANNELS 3 Zrotation Xrotation Yrotation
        JOINT rFoot
        {
          OFFSET 0.73152 -45.1104 -5.12064
          CHANNELS 3 Zrotation Xrotation Yrotation
          End Site
          {
            OFFSET -1.1221 -3.69964 12.103
          }
        }
      }
    }
  }
  JOINT lButtock
  {
    OFFSET 8.77824 4.35084 1.2192
    CHANNELS 3 Zrotation Xrotation Yrotation
    JOINT lThigh
    {
      OFFSET 0 -1.70687 -2.19456
      CHANNELS 3 Zrotation Xrotation Yrotation
      JOINT lShin
      {
        OFFSET 0 -36.8199 0.73152
        CHANNELS 3 Zrotation Xrotation Yrotation
        JOINT lFoot
        {
          OFFSET -0.73152 -45.1104 -5.12064
          CHANNELS 3 Zrotation Xrotation Yrotation
          End Site
          {
            OFFSET 1.1221 -3.69964 12.103
          }
        }
      }
    }
  }
}
MOTION
Frames:	8
Frame Time:	0.00833333
128.235 84.6446 0.0569247 -182.139 -70.0403 183.584 -1.55001 17.0111 2.29081 1.40748 2.20774 0.310407 7.01783 5.25795 2.09184 -14.0571 -24.2164 -0.255035 -0.0 0.0 0.0 -0.0 0.0 0.0 1.84367e-14 1.73201e-13 -4.67524e-14 16.5603 61.8067 65.0666 19.5701 -53.673 -115.248 -0.0232212 -4.34756 -0.612195 -9.51549e-10 -4.43493e-10 -2.14321e-10 -1.64216e-09 -7.67435e-10 -3.75067e-10 -9.51543e-10 -4.435e-10 -2.14338e-10 7.73091 5.47488 0.417314 -9.51549e-10 -4.43494e-10 -2.14323e-10 2.90554 0.965183 0.102902 -9.51542e-10 -4.43495e-10 -2.14326e-10 10.2786 0.731801 0.0259123 -9.51551e-10 -4.43495e-10 -2.14326e-10 2.22167 -0.733487 -0.20892 1.83584e-14 1.73187e-13 -4.70794e-14 0.502749 -19.4459 -21.5438 -28.8406 -37.2977 80.1701 0.0485786 -5.94053 0.837699 -5.9116e-10 -7.16725e-10 1.55574e-09 -1.02296e-09 -1.23474e-09 2.68012e-09 -5.91163e-10 -7.16727e-10 1.55576e-09 -7.73091 5.47488 -0.417314 -5.91161e-10 -7.1673e-10 1.55573e-09 -2.90554 0.965183 -0.102902 -5.91166e-10 -7.1673e-10 1.55573e-09 -10.2786 0.731801 -0.0259123 -5.91151e-10 -7.16725e-10 1.55573e-09 -2.22167 -0.733487 0.20892 -2.03217e-16 0.0 -3.88251e-19 2.35713 -16.2498 15.9144 -0.122282 27.2997 0.543921 -7.63019 -12.0912 -24.2517 2.03217e-16 0.0 3.88251e-19 2.89435 -4.58929 -7.36456 0.0285861 19.5493 -0.67881 14.3807 -18.4154 32.8099
128.432 84.7133 0.123989 -182.752 -71.2475 184.157 -1.43514 17.131 1.39261 1.98008 2.33059 0.042919 6.82746 5.38412 2.1533 -14.4573 -24.2638 -0.183423 -0.0 0.0 0.0 -0.0 0.0 0.0 6.36455e-14 2.4849e-13 -1.81093e-13 15.7697 61.0876 65.5291 19.4848 -53.7352 -115.451 -0.0248145 -4.49226 -0.632656 -1.36302e-09 -2.31694e-09 -1.3608e-09 -2.34455e-09 -4.01851e-09 -2.36407e-09 -1.36301e-09 -2.31694e-09 -1.36082e-09 7.73091 5.47488 0.417314 -1.36302e-09 -2.31694e-09 -1.3608e-09 2.90554 0.965183 0.102902 -1.36301e-09 -2.31694e-09 -1.3608e-09 10.2786 0.731801 0.0259123 -1.36302e-09 -2.31694e-09 -1.3608e-09 2.22167 -0.733487 -0.20892 6.3581e-14 2.48472e-13 -1.81441e-13 4.2405 -23.1771 -28.4628 -28.3517 -33.5007 72.8842 0.0209637 -4.12984 0.581429 -2.83149e-11 7.59516e-10 3.1684e-09 -5.95583e-11 1.30712e-09 5.47464e-09 -2.83109e-11 7.5952e-10 3.16842e-09 -7.73091 5.47488 -0.417314 -2.83157e-11 7.59511e-10 3.1684e-09 -2.90554 0.965183 -0.102902 -2.83215e-11 7.59511e-10 3.1684e-09 -10.2786 0.731801 -0.0259123 -2.83071e-11 7.59516e-10 3.1684e-09 -2.22167 -0.733487 0.20892 -2.03217e-16 0.0 -3.88251e-19 2.16687 -16.0885 15.3536 -0.119154 27.163 0.553244 -7.92729 -12.4448 -24.678 2.03217e-16 0.0 3.88251e-19 2.91412 -4.78948 -8.06149 0.0299862 19.3508 -0.656094 13.8564 -17.8046 32.467
128.631 84.7641 0.243835 -183.847 -72.5517 185.193 -1.31364 17.2144 0.417155 2.53768 2.47702 -0.247519 6.67692 5.44365 2.17488 -14.613 -24.122 -0.121524 -0.0 0.0 0.0 -0.0 0.0 0.0 7.30072e-14 2.76848e-13 -2.22279e-13 15.0405 60.4122 66.1003 19.4618 -53.7497 -115.506 -0.0262465 -4.61763 -0.650389 -1.19271e-09 -2.62339e-09 -1.57114e-09 -2.04875e-09 -4.55066e-09 -2.72798e-09 -1.1927e-09 -2.6234e-09 -1.57116e-09 7.73091 5.47488 0.417314 -1.19271e-09 -2.62339e-09 -1.57114e-09 2.90554 0.965183 0.102902 -1.1927e-09 -2.62339e-09 -1.57114e-09 10.2786 0.731801 0.0259123 -1.19271e-09 -2.62339e-09 -1.57114e-09 2.22167 -0.733487 -0.20892 7.29789e-14 2.76839e-13 -2.22606e-13 6.13843 -28.1003 -36.1202 -28.0574 -30.945 62.1795 0.0400392 -2.52199 0.344913 7.53974e-11 1.08863e-09 3.25577e-09 1.19704e-10 1.87403e-09 5.62917e-09 7.54026e-11 1.08864e-09 3.25579e-09 -7.73091 5.47488 -0.417314 7.53964e-11 1.08863e-09 3.25577e-09 -2.90554 0.965183 -0.102902 7.53898e-11 1.08863e-09 3.25577e-09 -10.2786 0.731801 -0.0259123 7.54025e-11 1.08863e-09 3.25576e-09 -2.22167 -0.733487 0.20892 -2.03217e-16 0.0 -3.88251e-19 1.99073 -15.981 14.7265 -0.116399 27.1131 0.566637 -8.29903 -12.8607 -25.2223 2.03217e-16 0.0 3.88251e-19 2.92355 -5.17174 -8.7034 0.0335062 19.3636 -0.634078 13.2309 -17.1356 31.9558
128.804 84.8057 0.342393 -184.477 -73.7638 185.7 -1.19434 17.2912 -0.635926 3.1076 2.64544 -0.562116 6.52947 5.45377 2.15929 -14.5338 -23.841 -0.0678758 -0.0 0.0 0.0 -0.0 0.0 0.0 6.31013e-14 2.76542e-13 -2.13936e-13 14.327 59.7452 66.7612 19.4916 -53.7253 -115.435 -0.0275238 -4.72801 -0.666008 -6.53909e-10 -2.00006e-09 -1.23401e-09 -1.12033e-09 -3.46958e-09 -2.14139e-09 -6.53904e-10 -2.00006e-09 -1.23403e-09 7.73091 5.47488 0.417314 -6.53909e-10 -2.00006e-09 -1.23401e-09 2.90554 0.965183 0.102902 -6.53904e-10 -2.00006e-09 -1.23402e-09 10.2786 0.731801 0.0259123 -6.53914e-10 -2.00006e-09 -1.23401e-09 2.22167 -0.733487 -0.20892 6.3128e-14 2.76552e-13 -2.14215e-13 5.65253 -32.9388 -45.1238 -26.5726 -25.5721 48.5834 0.09058 -1.00584 0.114937 -8.89565e-11 8.06393e-10 2.44153e-09 -1.58575e-10 1.38858e-09 4.22316e-09 -8.89527e-11 8.06398e-10 2.44155e-09 -7.73091 5.47488 -0.417314 -8.89575e-11 8.06392e-10 2.44153e-09 -2.90554 0.965183 -0.102902 -8.89655e-11 8.06391e-10 2.44153e-09 -10.2786 0.731801 -0.0259123 -8.89554e-11 8.06391e-10 2.44153e-09 -2.22167 -0.733487 0.20892 -2.03217e-16 0.0 -3.88251e-19 1.81249 -15.9024 13.9776 -0.114204 27.161 0.584354 -8.74731 -13.3584 -25.8496 2.03217e-16 0.0 3.88251e-19 2.93951 -5.70892 -9.29512 0.0388861 19.5773 -0.611347 12.4883 -16.373 31.2648
128.987 84.818 0.419875 -184.507 -74.8018 185.597 -1.06264 17.3943 -1.69794 3.68723 2.78626 -0.879346 6.39865 5.44316 2.18343 -14.5067 -23.5757 0.0426254 -0.0 0.0 0.0 -0.0 0.0 0.0 4.31114e-14 2.4809e-13 -1.74088e-13 13.4675 59.1084 67.6537 19.5875 -53.655 -115.207 -0.0287727 -4.83494 -0.681141 -1.40552e-11 -9.76149e-10 -6.47092e-10 -1.91697e-11 -1.69343e-09 -1.12139e-09 -1.40494e-11 -9.7615e-10 -6.47108e-10 7.73091 5.47488 0.417314 -1.40552e-11 -9.7615e-10 -6.47094e-10 2.90554 0.965183 0.102902 -1.405e-11 -9.76149e-10 -6.47097e-10 10.2786 0.731801 0.0259123 -1.40614e-11 -9.76148e-10 -6.47088e-10 2.22167 -0.733487 -0.20892 4.31852e-14 2.48118e-13 -1.74317e-13 2.69997 -36.2156 -54.6688 -21.8862 -16.794 36.7108 0.0985706 1.37563 -0.223001 -3.20788e-10 3.02951e-10 1.3024e-09 -5.53227e-10 5.21518e-10 2.25444e-09 -3.20787e-10 3.02955e-10 1.30242e-09 -7.73091 5.47488 -0.417314 -3.20789e-10 3.02952e-10 1.30241e-09 -2.90554 0.965183 -0.102902 -3.20799e-10 3.02951e-10 1.3024e-09 -10.2786 0.731801 -0.0259123 -3.20791e-10 3.02948e-10 1.3024e-09 -2.22167 -0.733487 0.20892 -2.03217e-16 0.0 -3.88251e-19 1.64919 -15.8766 13.2477 -0.113001 27.2771 0.601895 -9.16321 -13.8155 -26.4048 2.03217e-16 0.0 3.88251e-19 2.94573 -6.26016 -9.75974 0.0444584 19.8757 -0.59093 11.7818 -15.6271 30.5825
129.222 84.7887 0.552072 -184.669 -75.8615 185.814 -0.901801 17.5581 -2.70085 4.27268 2.84987 -1.17762 6.29802 5.44045 2.32418 -14.819 -23.4808 0.275129 -0.0 0.0 0.0 -0.0 0.0 0.0 2.22215e-14 1.92008e-13 -1.20762e-13 12.3083 58.5172 68.9084 19.7612 -53.5305 -114.791 -0.030145 -4.94993 -0.697421 4.59428e-10 -8.08513e-11 -1.08056e-10 7.94853e-10 -1.40361e-10 -1.8507e-10 4.59434e-10 -8.08513e-11 -1.08072e-10 7.73091 5.47488 0.417314 4.59428e-10 -8.08525e-11 -1.08059e-10 2.90554 0.965183 0.102902 4.59433e-10 -8.08513e-11 -1.08061e-10 10.2786 0.731801 0.0259123 4.59421e-10 -8.08501e-11 -1.0805e-10 2.22167 -0.733487 -0.20892 2.23076e-14 1.92045e-13 -1.2096e-13 -1.61122 -37.4368 -63.0175 -15.7155 -8.4255 29.0742 0.0383267 5.579 -0.786589 -4.1951e-10 -3.15328e-11 4.15088e-10 -7.23084e-10 -5.63817e-11 7.20804e-10 -4.1951e-10 -3.153e-11 4.1511e-10 -7.73091 5.47488 -0.417314 -4.19511e-10 -3.15301e-11 4.15094e-10 -2.90554 0.965183 -0.102902 -4.19521e-10 -3.1532e-11 4.15093e-10 -10.2786 0.731801 -0.0259123 -4.19515e-10 -3.15364e-11 4.15091e-10 -2.22167 -0.733487 0.20892 -2.03217e-16 0.0 -3.88251e-19 1.51586 -15.9301 12.6769 -0.113155 27.432 0.614735 -9.42782 -14.1156 -26.7289 2.03217e-16 0.0 3.88251e-19 2.93401 -6.68622 -10.0187 0.0488086 20.1423 -0.575925 11.248 -15.0188 30.0899
129.372 84.7434 0.68899 -184.756 -76.5617 185.843 -0.691946 17.8277 -3.71116 4.98075 2.76166 -1.47481 6.18791 5.42804 2.64227 -15.6551 -23.6167 0.70215 -0.0 0.0 0.0 -0.0 0.0 0.0 1.48779e-15 7.76711e-14 -4.51086e-14 10.5422 57.919 70.7746 20.0391 -53.3246 -114.119 -0.0317479 -5.08066 -0.715935 7.54321e-10 6.64844e-10 3.72468e-10 1.3007e-09 1.153e-09 6.49241e-10 7.54328e-10 6.64843e-10 3.7245e-10 7.73091 5.47488 0.417314 7.54321e-10 6.64842e-10 3.72463e-10 2.90554 0.965183 0.102902 7.54325e-10 6.64843e-10 3.72463e-10 10.2786 0.731801 0.0259123 7.54314e-10 6.64845e-10 3.72475e-10 2.22167 -0.733487 -0.20892 1.53e-15 7.77045e-14 -4.53035e-14 -7.43853 -37.8663 -69.6858 -11.4443 -3.95857 24.2184 0.00953294 13.7685 -1.8903 -4.29624e-10 -2.44053e-10 -1.12062e-10 -7.48589e-10 -4.28175e-10 -1.89146e-10 -4.29625e-10 -2.4405e-10 -1.12042e-10 -7.73091 5.47488 -0.417314 -4.29624e-10 -2.4405e-10 -1.12055e-10 -2.90554 0.965183 -0.102902 -4.29634e-10 -2.44051e-10 -1.12056e-10 -10.2786 0.731801 -0.0259123 -4.29628e-10 -2.44055e-10 -1.12058e-10 -2.22167 -0.733487 0.20892 -2.03217e-16 0.0 -3.88251e-19 1.42623 -16.106 12.2848 -0.115064 27.6372 0.621097 -9.47456 -14.2003 -26.739 2.03217e-16 0.0 3.88251e-19 2.92151 -6.96478 -10.0219 0.0517234 20.3555 -0.56767 10.9201 -14.5869 29.8475
129.477 84.6929 0.783509 -184.927 -76.6587 185.943 -0.439793 18.1722 -4.73928 5.77159 2.56858 -1.77444 6.0759 5.39884 3.08327 -16.8205 -23.8928 1.27268 -0.0 0.0 0.0 -0.0 0.0 0.0 -2.35234e-14 -8.49422e-14 5.79333e-14 8.38218 57.2842 73.0545 20.3979 -53.0429 -113.24 -0.033502 -5.21944 -0.735598 9.93555e-10 1.50313e-09 9.30324e-10 1.70977e-09 2.60694e-09 1.61747e-09 9.93562e-10 1.50313e-09 9.30303e-10 7.73091 5.47488 0.417314 9.93555e-10 1.50313e-09 9.30317e-10 2.90554 0.965183 0.102902 9.93558e-10 1.50313e-09 9.30319e-10 10.2786 0.731801 0.0259123 9.93548e-10 1.50313e-09 9.3033e-10 2.22167 -0.733487 -0.20892 -2.35623e-14 -8.49194e-14 5.77283e-14 -14.5257 -38.0741 -75.2701 -9.37098 -2.66806 20.1149 0.462935 24.7733 -3.57018 -4.25446e-10 -4.92348e-10 -5.71481e-10 -7.54556e-10 -8.64295e-10 -9.81751e-10 -4.25447e-10 -4.92346e-10 -5.71465e-10 -7.73091 5.47488 -0.417314 -4.25445e-10 -4.92345e-10 -5.71473e-10 -2.90554 0.965183 -0.102902 -4.25454e-10 -4.92346e-10 -5.71475e-10 -10.2786 0.731801 -0.0259123 -4.25447e-10 -4.92348e-10 -5.71477e-10 -2.22167 -0.733487 0.20892 -2.03217e-16 0.0 -3.88251e-19 1.36579 -16.3803 12.002 -0.118423 27.902 0.623589 -9.37262 -14.1439 -26.5309 2.03217e-16 0.0 3.88251e-19 2.91362 -7.16668 -9.81982 0.0539985 20.5742 -0.564376 10.7152 -14.2713 29.7486
